<?xml version="1.0" encoding="UTF-8" standalone="no"?>
<svg
   xmlns:dc="http://purl.org/dc/elements/1.1/"
   xmlns:cc="http://creativecommons.org/ns#"
   xmlns:rdf="http://www.w3.org/1999/02/22-rdf-syntax-ns#"
   xmlns:svg="http://www.w3.org/2000/svg"
   xmlns="http://www.w3.org/2000/svg"
   xmlns:sodipodi="http://sodipodi.sourceforge.net/DTD/sodipodi-0.dtd"
   xmlns:inkscape="http://www.inkscape.org/namespaces/inkscape"
   width="1920px"
   height="1080px"
   viewBox="0 0 1920 1080"
   version="1.1"
   id="SVGRoot"
   sodipodi:docname="icon.svg"
   inkscape:version="1.0.2 (e86c870879, 2021-01-15)">
  <defs
     id="defs1340" />
  <sodipodi:namedview
     id="base"
     pagecolor="#ffffff"
     bordercolor="#666666"
     borderopacity="1.0"
     inkscape:pageopacity="0.0"
     inkscape:pageshadow="2"
     inkscape:zoom="0.35"
     inkscape:cx="982.85594"
     inkscape:cy="829.12739"
     inkscape:document-units="px"
     inkscape:current-layer="layer1"
     inkscape:document-rotation="0"
     showgrid="false"
     inkscape:window-width="1366"
     inkscape:window-height="705"
     inkscape:window-x="1272"
     inkscape:window-y="102"
     inkscape:window-maximized="1" />
  <metadata
     id="metadata1343">
    <rdf:RDF>
      <cc:Work
         rdf:about="">
        <dc:format>image/svg+xml</dc:format>
        <dc:type
           rdf:resource="http://purl.org/dc/dcmitype/StillImage" />
        <dc:title></dc:title>
      </cc:Work>
    </rdf:RDF>
  </metadata>
  <g
     inkscape:label="Warstwa 1"
     inkscape:groupmode="layer"
     id="layer1">
    <path
       d="m 997.18631,618.52346 c 0,1.6537 -1.33939,2.9916 -2.99081,2.9916 h -12.07465 c -8.32018,0 -15.06399,-6.7445 -15.06399,-15.064 0,-8.3213 6.74381,-15.0654 15.06399,-15.0654 8.32021,0 15.06546,6.7441 15.06546,15.0654 z m 29.91269,-50.172 v -12.0751 c 0,-8.3194 6.7456,-15.0654 15.0655,-15.0654 8.3191,0 15.0662,6.746 15.0662,15.0654 0,8.3203 -6.7471,15.0658 -15.0662,15.0658 h -12.0746 c -1.6515,0 -2.9909,-1.3382 -2.9909,-2.9907 m 15.0655,26.9204 h -18.0573 c -1.6511,0 -2.9908,1.3401 -2.9908,2.9916 v 32.2247 c 0,1.6537 -1.3401,2.9915 -2.9909,2.9915 -1.6525,0 -2.9918,-1.3378 -2.9918,-2.9915 v -74.2118 c 0,-14.9285 12.103,-27.0304 27.0308,-27.0304 14.9285,0 27.0301,12.102 27.0301,27.0304 0,14.9279 -12.1016,27.0312 -27.0301,27.0312 h -12.0746 c -1.6515,0 -2.9909,-1.3386 -2.9909,-2.9912 0,-1.6521 1.3394,-2.9915 2.9909,-2.9915 h 12.0746 c 11.6245,0 21.0477,-9.4239 21.0477,-21.0485 0,-11.6241 -9.4232,-21.0477 -21.0477,-21.0477 -11.6242,0 -21.0481,9.4236 -21.0481,21.0477 v 30.022 c 0,1.6529 1.3397,2.9912 2.9908,2.9912 h 18.0573 c 18.2317,0 33.0132,-14.7814 33.0132,-33.0132 0,-18.2313 -14.7815,-33.0124 -33.0132,-33.0124 -18.2321,0 -33.0132,14.7811 -33.0132,33.0124 v 86.1787 c 0,1.6514 -1.3393,2.9915 -2.9911,2.9915 h -24.03788 c -21.5379,0 -38.99731,-17.4605 -38.99731,-38.9955 0,-21.5365 17.45941,-38.9958 38.99731,-38.9958 5.3407,0 10.43086,1.0738 15.06399,3.0173 v 6.5952 c -4.51627,-2.3207 -9.63662,-3.6302 -15.06399,-3.6302 -18.23319,0 -33.01425,14.7799 -33.01425,33.0135 0,18.231 14.78106,33.011 33.01425,33.011 h 18.05558 c 1.6514,0 2.9911,-1.3375 2.9911,-2.9908 v -30.0202 c 0,-1.7927 -0.2237,-3.5341 -0.6464,-5.1965 -0.9231,-3.6371 -2.79486,-6.8974 -5.33629,-9.503 -3.82291,-3.9168 -9.15923,-6.3486 -15.06399,-6.3486 -11.62597,0 -21.04815,9.4236 -21.04815,21.0481 0,11.6227 9.42218,21.0467 21.04815,21.0467 h 12.07318 c 1.65142,0 2.99081,1.3394 2.99081,2.9904 0,1.6537 -1.33939,2.9915 -2.99081,2.9915 h -12.07318 c -14.92887,0 -27.03046,-12.1015 -27.03046,-27.0286 0,-14.9285 12.10159,-27.0305 27.03046,-27.0305 5.57813,0 10.76077,1.689 15.06399,4.5833 2.18854,1.4715 4.14989,3.2559 5.81919,5.2857 0.055,0.067 0.1104,0.1338 0.1637,0.2011 v -33.2142 c 0,-21.5361 17.459,-38.9955 38.9954,-38.9955 21.5361,0 38.9955,17.4594 38.9955,38.9955 0,21.5365 -17.4594,38.9955 -38.9955,38.9955 m 0,-83.9729 c -24.839,0 -44.97814,20.137 -44.97814,44.9774 v 7.782 c -4.70963,-1.6759 -9.77937,-2.5869 -15.06398,-2.5869 -24.84084,0 -44.97963,20.1391 -44.97963,44.9796 0,24.8393 20.13879,44.9774 44.97963,44.9774 h 30.01982 c 1.6522,0 2.9915,-1.3375 2.9915,-2.9911 v -5.9824 c 0,-1.6507 1.3394,-2.9908 2.9919,-2.9908 h 5.9816 c 1.6518,0 2.9919,-1.3397 2.9919,-2.9915 v -32.2266 c 0,-1.6522 1.3393,-2.9915 2.9908,-2.9915 h 12.0746 c 24.8409,0 44.9775,-20.1377 44.9775,-44.9782 0,-24.8404 -20.1366,-44.9774 -44.9775,-44.9774"
       style="fill:#4b6cc1;fill-opacity:1;fill-rule:nonzero;stroke:none;stroke-width:0.364154"
       id="path958-6-2-3-4-5-9-54" />
  </g>
</svg>
